# xmcd
#
# Track frame offsets:
#	150
#	16205
#	35939
#	56412
#	73560
#	89131
#	105472
#	121711
#	137520
#	154856
#	170798
#	193194
#	209498
#	226332
#	244748
#	273653
#
# Disc length: 3663 seconds
#
# Revision: 1
# Processed by: cddbd v1.5.1PL0 Copyright (c) Steve Scherf et al.
# Submitted via: audiograbber 1.83.01
#
DISCID=e90e4d10
DTITLE=Chartbuster - CB60337
DYEAR=2005
DGENRE=Karaoke
TTITLE0=CB60337-01 - Wilson, Gretchen - Homewrecker
TTITLE1=CB60337-02 - Pinson, Bobby - Don't Ask Me How
TTITLE2=CB60337-03 - Rascal Flatts - Skin
TTITLE3=CB60337-04 - Dotson, Amber - I'll Try Anything
TTITLE4=CB60337-05 - McComas, Brian - Middle Of Nowhere, The
TTITLE5=CB60337-06 - Diamond Rio - One Believer
TTITLE6=CB60337-07 - Trick Pony - It's A Heartache
TTITLE7=CB60337-08 - Jewell, Buddy - If She Were Any Other Woman
TTITLE8=CB60337-09 - Green, Pat - Baby Doll
TTITLE9=CB60337-10 - Carter, Deana - One Day At A Time
TTITLE10=CB60337-11 - Randy Rogers Band - Tonight's Not The Night
TTITLE11=CB60337-12 - Byrd, Tracy - Tiny Town
TTITLE12=CB60337-13 - McCann, Lila - Go Easy On Me
TTITLE13=CB60337-14 - Hanna-McEuen - Something Like A Broken Heart
TTITLE14=CB60337-15 - Merritt - Good Hearted Woman
TTITLE15=CB60337-16
EXTD=
EXTT0=
EXTT1=
EXTT2=
EXTT3=
EXTT4=
EXTT5=
EXTT6=
EXTT7=
EXTT8=
EXTT9=
EXTT10=
EXTT11=
EXTT12=
EXTT13=
EXTT14=
EXTT15=
PLAYORDER=
